<!-- Created with Inkscape (http://www.inkscape.org/) --><svg xmlns:inkscape="http://www.inkscape.org/namespaces/inkscape" xmlns:sodipodi="http://sodipodi.sourceforge.net/DTD/sodipodi-0.dtd" xmlns="http://www.w3.org/2000/svg" xmlns:svg="http://www.w3.org/2000/svg" width="210mm" height="297mm" viewBox="0 0 210 297" version="1.1" id="svg1" xml:space="preserve" inkscape:version="1.4.2 (ebf0e94, 2025-05-08)" sodipodi:docname="logo_igni_version_2.zip"><defs>
<linearGradient id="fireGradient" x1="0%" y1="0%" x2="100%" y2="100%">
  <stop offset="0%" style="stop-color:#ffffff;stop-opacity:1" />
  <stop offset="15%" style="stop-color:#ffff00;stop-opacity:1" />
  <stop offset="40%" style="stop-color:#ffa500;stop-opacity:1" />
  <stop offset="70%" style="stop-color:#ff4500;stop-opacity:1" />
  <stop offset="100%" style="stop-color:#8b0000;stop-opacity:0.8" />
</linearGradient>
  
</defs><sodipodi:namedview id="namedview1" pagecolor="#ffffff" bordercolor="#000000" borderopacity="0.25" inkscape:showpageshadow="2" inkscape:pageopacity="0.0" inkscape:pagecheckerboard="0" inkscape:deskcolor="#d1d1d1" inkscape:document-units="mm" showgrid="false" showguides="false" inkscape:zoom="0.52503387" inkscape:cx="355.21518" inkscape:cy="660.90974" inkscape:window-width="1920" inkscape:window-height="1131" inkscape:window-x="0" inkscape:window-y="0" inkscape:window-maximized="1" inkscape:current-layer="layer2"><inkscape:grid id="grid24" units="mm" originx="0" originy="0" spacingx="0.99999998" spacingy="1" empcolor="#0099e5" empopacity="0.30196078" color="#0099e5" opacity="0.14901961" empspacing="5" enabled="true" visible="false"/></sodipodi:namedview><defs id="defs1"><linearGradient id="fireGradient1" x1="2515.4148" y1="6168.9595" x2="1961.8849" y2="6848.2778" gradientTransform="matrix(0.05325861,0,0,-0.02336752,0.0793965,387.80623)" gradientUnits="userSpaceOnUse"><stop offset="0%" style="stop-color:#ff0000;stop-opacity:1" id="stop1"/><stop offset="30%" style="stop-color:#ff4500;stop-opacity:1" id="stop2"/><stop offset="60%" style="stop-color:#ffa500;stop-opacity:1" id="stop3"/><stop offset="100%" style="stop-color:#ffff00;stop-opacity:0.8" id="stop4"/></linearGradient><linearGradient id="fireGradient2" x1="100%" y1="0%" x2="0%" y2="100%"><stop offset="0%" style="stop-color:#ff0000;stop-opacity:1" id="stop5"/><stop offset="30%" style="stop-color:#ff4500;stop-opacity:1" id="stop6"/><stop offset="60%" style="stop-color:#ffa500;stop-opacity:1" id="stop7"/><stop offset="100%" style="stop-color:#ffff00;stop-opacity:0.8" id="stop8"/></linearGradient><radialGradient id="fireGradient3" cx="3416.3267" cy="1753.2588" r="1147.0527" gradientTransform="matrix(0.03015743,0,0,-0.0412675,-55.353535,325.82212)" fx="3416.3267" fy="1753.2588" gradientUnits="userSpaceOnUse"><stop offset="0%" style="stop-color:#ffff00;stop-opacity:1" id="stop9"/><stop offset="40%" style="stop-color:#ffa500;stop-opacity:1" id="stop10"/><stop offset="70%" style="stop-color:#ff4500;stop-opacity:1" id="stop11"/><stop offset="100%" style="stop-color:#ff0000;stop-opacity:1" id="stop12"/></radialGradient></defs><g inkscape:groupmode="layer" id="layer2" inkscape:label="referencia"><path id="path13" d="m 140.9855,65.075489 c -0.17639,0 -0.24743,0.423746 -0.1416,0.952912 0.0706,0.564445 0.95268,2.751255 1.94046,4.867921 5.78555,12.629437 6.35,27.446483 1.5875,39.723158 -2.50473,6.45583 -6.70282,11.88864 -16.2631,21.02558 -7.62,7.3025 -8.21944,8.21966 -8.53694,12.45299 -0.21167,3.24556 0.35267,4.55059 3.06906,7.33754 3.24556,3.28083 9.06649,5.39788 13.3351,4.79815 2.92546,-0.20213 3.26011,-0.19192 4.60256,-0.51518 0.37234,-0.0897 0.85243,-0.16371 1.41975,-0.30807 0.3271,-0.0832 0.67269,-0.12678 1.07037,-0.3723 0.26598,-0.1642 -0.41912,0.69541 -1.40505,1.44865 -1.10726,0.84593 -2.52813,1.60294 -2.12377,1.50732 6.91017,-1.63407 10.53537,-8.39082 11.06298,-8.82132 0.82375,-0.67214 0.27367,1.56983 -1.14228,3.93261 -1.60537,2.67886 -4.15213,5.56388 -3.94467,5.45981 9.67436,-4.85327 11.69726,-16.10858 12.4516,-17.3992 0.35598,-0.60903 1.44339,1.20301 1.04461,3.90971 -0.39458,2.67818 -2.27222,6.2472 -2.51974,6.42225 7.88214,-7.00161 6.37992,-25.06062 7.27895,-25.42404 0.92372,-0.37341 0.43972,12.17261 0.52578,11.9264 3.40841,-9.75099 2.80743,-16.85113 2.94486,-18.98737 0.91722,-15.45167 -7.03028,-32.841381 -17.3314,-45.61193 -2.11666,-2.610556 -8.25475,-8.325591 -8.92503,-8.325591 z" sodipodi:nodetypes="scccccccsssssssssscssccs" style="stroke-width:0.0352778"
                                                        fill="url(#fireGradient)" 
stroke="#f56a14" 
stroke-width="8"
                                                                                /><path id="path13-3" d="m 35.029443,104.32051 c 0,0.17639 0.423746,0.24743 0.952909,0.1416 0.56445,-0.0706 2.75126,-0.95268 4.86792,-1.94046 12.62945,-5.785557 27.4465,-6.350007 39.723167,-1.58751 6.455826,2.50474 11.888639,6.70283 21.025581,16.26311 7.3025,7.62 8.21966,8.21944 12.45299,8.53694 3.24556,0.21167 4.55059,-0.35267 7.33754,-3.06906 3.28083,-3.24556 5.39788,-9.06649 4.79815,-13.3351 -0.20213,-2.92546 -0.19192,-3.26011 -0.51518,-4.60256 -0.0897,-0.37234 -0.16371,-0.85243 -0.30807,-1.41975 -0.0832,-0.3271 -0.12678,-0.67269 -0.3723,-1.07037 -0.1642,-0.26599 0.69541,0.41912 1.44865,1.40505 0.84593,1.10726 1.60294,2.52813 1.50732,2.12377 -1.63407,-6.910177 -8.39082,-10.535377 -8.82132,-11.062984 -0.67214,-0.82375 1.56983,-0.27367 3.93261,1.142277 2.67886,1.60537 5.56388,4.15213 5.45981,3.94467 -4.85327,-9.674357 -16.10858,-11.697254 -17.3992,-12.451594 -0.60903,-0.35598 1.20301,-1.44339 3.90971,-1.04461 2.67818,0.39458 6.2472,2.27222 6.42225,2.51974 -7.00161,-7.882143 -25.060622,-6.379923 -25.424042,-7.278953 -0.37341,-0.92372 12.172612,-0.43972 11.926402,-0.52578 -9.750992,-3.40841 -16.851135,-2.80743 -18.987375,-2.94486 -15.451663,-0.91722 -32.841373,7.030283 -45.611933,17.331397 -2.61055,2.11666 -8.325589,8.254757 -8.325589,8.925037 z" sodipodi:nodetypes="scccccccsssssssssscssccs" style="stroke-width:0.0352778"/><path id="path13-1" d="m 86.198354,218.23326 c 0.17639,0 0.24743,-0.42601 0.1416,-0.95802 -0.0706,-0.56747 -0.95268,-2.76598 -1.94046,-4.89397 -5.78555,-12.69704 -6.35,-27.59341 -1.5875,-39.93581 2.50473,-6.49037 6.70282,-11.95227 16.263098,-21.13812 7.620008,-7.3416 8.219448,-8.26368 8.536948,-12.51964 0.21167,-3.26295 -0.35267,-4.57496 -3.06906,-7.37682 -3.24556,-3.2984 -9.066496,-5.42678 -13.335106,-4.82384 -2.92546,0.20319 -3.26011,0.19293 -4.60256,0.51793 -0.37234,0.0902 -0.85243,0.16457 -1.41975,0.30972 -0.3271,0.0837 -0.67269,0.12744 -1.07037,0.37431 -0.26598,0.16506 0.41912,-0.69916 1.40505,-1.45641 1.10726,-0.85048 2.52813,-1.61155 2.12377,-1.51542 -6.91017,1.64282 -10.53537,8.43577 -11.06298,8.86857 -0.82375,0.67574 -0.27367,-1.57824 1.14228,-3.95368 1.60537,-2.69319 4.15213,-5.59367 3.94467,-5.48905 -9.67436,4.87926 -11.69726,16.19483 -12.4516,17.49235 -0.35598,0.61229 -1.44339,-1.20942 -1.04461,-3.93063 0.39458,-2.6925 2.27222,-6.28063 2.51974,-6.45663 -7.88214,7.03909 -6.37992,25.19476 -7.27895,25.56012 -0.92372,0.37542 -0.43972,-12.23776 -0.52578,-11.99022 -3.40841,9.80319 -2.80743,16.94133 -2.94486,19.08902 -0.91722,15.53437 7.03028,33.01717 17.3314,45.85608 2.11666,2.62453 8.25475,8.37016 8.92503,8.37016 z" sodipodi:nodetypes="scccccccsssssssssscssccs" style="stroke-width:0.0353721"/></g></svg>